<svg width="660" height="173" viewBox="0 0 660 173" fill="none" xmlns="http://www.w3.org/2000/svg">
<path d="M45.1375 0L21.6707 135H0.928467L24.3953 0H45.1375ZM96.2898 39.9023L48.5652 85.4297L21.5828 109.424L19.1218 90.0879L38.8093 69.5215L69.7468 39.9023H96.2898ZM59.1121 135L36.4363 89.4727L51.2019 75.4102L81.8757 135H59.1121Z" fill="white"/>
<path d="M119.679 39.9023L103.156 135H82.5015L99.0249 39.9023H119.679ZM101.925 15.293C101.867 11.8945 102.98 9.11133 105.265 6.94336C107.55 4.77539 110.363 3.66211 113.703 3.60352C116.925 3.54492 119.679 4.54102 121.964 6.5918C124.308 8.58398 125.48 11.25 125.48 14.5898C125.539 17.9883 124.396 20.7422 122.052 22.8516C119.767 24.9609 116.984 26.0449 113.703 26.1035C110.48 26.1621 107.726 25.2246 105.441 23.291C103.156 21.2988 101.984 18.6328 101.925 15.293Z" fill="white"/>
<path d="M174.621 114.082L194.397 0H215.227L191.76 135H173.127L174.621 114.082ZM119.075 89.209L119.25 87.3633C120.012 81.5039 121.389 75.6445 123.381 69.7852C125.432 63.9258 128.186 58.5645 131.643 53.7012C135.159 48.8379 139.436 44.9707 144.475 42.0996C149.573 39.2285 155.549 37.8809 162.405 38.0566C168.381 38.2324 173.362 39.7852 177.346 42.7148C181.33 45.6445 184.436 49.4238 186.662 54.0527C188.948 58.6816 190.5 63.6914 191.321 69.082C192.141 74.4141 192.405 79.6289 192.112 84.7266L191.409 90.7031C190.471 96.0938 188.889 101.543 186.662 107.051C184.436 112.559 181.535 117.598 177.961 122.168C174.446 126.738 170.227 130.371 165.305 133.066C160.442 135.762 154.875 137.021 148.606 136.846C142.336 136.611 137.151 135.029 133.049 132.1C128.948 129.111 125.784 125.273 123.557 120.586C121.33 115.84 119.895 110.742 119.25 105.293C118.606 99.7852 118.547 94.4238 119.075 89.209ZM140.168 87.1875L139.993 89.0332C139.641 92.0801 139.494 95.332 139.553 98.7891C139.612 102.246 140.08 105.557 140.959 108.721C141.897 111.826 143.45 114.404 145.618 116.455C147.844 118.506 150.95 119.619 154.934 119.795C159.563 119.971 163.664 118.916 167.239 116.631C170.871 114.346 173.889 111.357 176.291 107.666C178.694 103.975 180.393 100.049 181.389 95.8887L183.85 79.8047C184.026 76.875 183.821 73.9746 183.235 71.1035C182.707 68.2324 181.741 65.625 180.334 63.2812C178.928 60.9375 177.053 59.0332 174.709 57.5684C172.424 56.0449 169.641 55.2539 166.36 55.1953C162.024 55.0195 158.274 55.8984 155.11 57.832C152.004 59.7656 149.426 62.3438 147.375 65.5664C145.383 68.7891 143.801 72.3047 142.629 76.1133C141.457 79.9219 140.637 83.6133 140.168 87.1875Z" fill="white"/>
<path d="M206.712 89.0332L206.976 87.0117C207.679 80.4492 209.29 74.209 211.81 68.291C214.329 62.373 217.669 57.1289 221.829 52.5586C226.048 47.9297 230.999 44.3262 236.683 41.748C242.425 39.1699 248.812 37.9688 255.843 38.1445C262.64 38.2617 268.47 39.668 273.333 42.3633C278.255 45.0586 282.239 48.6621 285.286 53.1738C288.392 57.627 290.56 62.7246 291.79 68.4668C293.021 74.1504 293.343 80.0977 292.757 86.3086L292.581 88.3301C291.819 94.8926 290.15 101.104 287.571 106.963C285.052 112.822 281.683 118.037 277.464 122.607C273.304 127.119 268.353 130.664 262.611 133.242C256.927 135.762 250.599 136.934 243.626 136.758C236.888 136.641 231.058 135.264 226.136 132.627C221.273 129.932 217.288 126.357 214.183 121.904C211.136 117.451 208.997 112.412 207.767 106.787C206.536 101.104 206.185 95.1855 206.712 89.0332ZM227.542 87.0117L227.366 89.0332C227.073 92.2559 227.044 95.6543 227.278 99.2285C227.513 102.803 228.216 106.143 229.388 109.248C230.56 112.354 232.376 114.902 234.837 116.895C237.298 118.887 240.579 119.941 244.681 120.059C249.017 120.176 252.796 119.297 256.019 117.422C259.241 115.547 261.937 113.027 264.105 109.863C266.273 106.699 268.001 103.242 269.29 99.4922C270.579 95.6836 271.429 91.9629 271.839 88.3301L272.015 86.3086C272.366 83.1445 272.425 79.7754 272.191 76.2012C271.956 72.5684 271.253 69.1699 270.081 66.0059C268.909 62.7832 267.093 60.1758 264.632 58.1836C262.171 56.1328 258.89 55.0488 254.788 54.9316C250.394 54.8145 246.585 55.7227 243.362 57.6562C240.14 59.5312 237.444 62.0801 235.277 65.3027C233.109 68.5254 231.38 72.041 230.091 75.8496C228.861 79.6582 228.011 83.3789 227.542 87.0117Z" fill="white"/>
<path d="M319.574 112.939L353.236 39.9023H367.123L359.213 63.0176L325.639 135H313.246L319.574 112.939ZM319.662 39.9023L323.441 115.488L321.332 135H308.412L299.975 39.9023H319.662ZM374.154 112.324L402.543 39.9023H423.285L381.889 135H368.178L374.154 112.324ZM368.793 39.9023L377.23 114.258L376.088 135H364.75L355.521 60.9082L355.785 39.9023H368.793Z" fill="white"/>
<path d="M488.521 0L465.054 135H444.4L467.779 0H488.521Z" fill="white"/>
<path d="M480.973 89.0332L481.237 87.0117C481.94 80.4492 483.551 74.209 486.071 68.291C488.59 62.373 491.93 57.1289 496.09 52.5586C500.309 47.9297 505.26 44.3262 510.944 41.748C516.686 39.1699 523.073 37.9688 530.104 38.1445C536.901 38.2617 542.731 39.668 547.594 42.3633C552.516 45.0586 556.5 48.6621 559.547 53.1738C562.653 57.627 564.821 62.7246 566.051 68.4668C567.282 74.1504 567.604 80.0977 567.018 86.3086L566.842 88.3301C566.08 94.8926 564.411 101.104 561.832 106.963C559.313 112.822 555.944 118.037 551.725 122.607C547.565 127.119 542.614 130.664 536.871 133.242C531.188 135.762 524.86 136.934 517.887 136.758C511.149 136.641 505.319 135.264 500.397 132.627C495.534 129.932 491.549 126.357 488.444 121.904C485.397 117.451 483.258 112.412 482.028 106.787C480.797 101.104 480.446 95.1855 480.973 89.0332ZM501.803 87.0117L501.627 89.0332C501.334 92.2559 501.305 95.6543 501.539 99.2285C501.774 102.803 502.477 106.143 503.649 109.248C504.821 112.354 506.637 114.902 509.098 116.895C511.559 118.887 514.84 119.941 518.942 120.059C523.278 120.176 527.057 119.297 530.28 117.422C533.502 115.547 536.198 113.027 538.366 109.863C540.534 106.699 542.262 103.242 543.551 99.4922C544.84 95.6836 545.69 91.9629 546.1 88.3301L546.276 86.3086C546.627 83.1445 546.686 79.7754 546.452 76.2012C546.217 72.5684 545.514 69.1699 544.342 66.0059C543.17 62.7832 541.354 60.1758 538.893 58.1836C536.432 56.1328 533.151 55.0488 529.049 54.9316C524.655 54.8145 520.846 55.7227 517.623 57.6562C514.401 59.5312 511.705 62.0801 509.537 65.3027C507.369 68.5254 505.641 72.041 504.352 75.8496C503.121 79.6582 502.272 83.3789 501.803 87.0117Z" fill="white"/>
<path d="M640.417 39.9023H659.401L643.669 132.275C642.497 140.654 639.743 147.891 635.407 153.984C631.13 160.078 625.593 164.736 618.796 167.959C611.999 171.24 604.382 172.764 595.944 172.529C591.726 172.471 587.566 171.797 583.464 170.508C579.362 169.277 575.554 167.49 572.038 165.146C568.523 162.803 565.505 159.902 562.985 156.445L573.796 144.141C576.491 147.773 579.655 150.645 583.288 152.754C586.921 154.863 590.993 155.977 595.505 156.094C600.427 156.211 604.792 155.303 608.601 153.369C612.409 151.494 615.515 148.799 617.917 145.283C620.378 141.768 621.989 137.607 622.751 132.803L635.056 60.3809L640.417 39.9023ZM569.489 89.209L569.753 87.2754C570.456 81.416 571.862 75.5566 573.972 69.6973C576.081 63.7793 578.894 58.418 582.409 53.6133C585.984 48.75 590.319 44.9121 595.417 42.0996C600.573 39.2871 606.579 37.9395 613.435 38.0566C619.646 38.2324 624.743 39.7559 628.728 42.627C632.771 45.498 635.876 49.2188 638.044 53.7891C640.271 58.3594 641.765 63.3398 642.526 68.7305C643.288 74.1211 643.523 79.4531 643.23 84.7266L642.526 90.7031C641.589 96.1523 640.007 101.631 637.78 107.139C635.554 112.646 632.653 117.686 629.079 122.256C625.564 126.768 621.345 130.371 616.423 133.066C611.56 135.762 605.964 137.021 599.636 136.846C593.366 136.67 588.151 135.117 583.991 132.188C579.831 129.199 576.609 125.361 574.323 120.674C572.038 115.986 570.515 110.889 569.753 105.381C569.05 99.873 568.962 94.4824 569.489 89.209ZM590.495 87.2754L590.319 89.1211C589.968 92.2266 589.851 95.5078 589.968 98.9648C590.085 102.422 590.642 105.703 591.638 108.809C592.634 111.914 594.275 114.492 596.56 116.543C598.845 118.535 601.95 119.59 605.876 119.707C610.622 119.941 614.812 118.945 618.444 116.719C622.136 114.492 625.183 111.533 627.585 107.842C630.046 104.15 631.775 100.166 632.771 95.8887L635.232 79.8047C635.466 76.8164 635.29 73.8867 634.704 71.0156C634.118 68.0859 633.093 65.4492 631.628 63.1055C630.222 60.7617 628.347 58.8867 626.003 57.4805C623.659 56.0156 620.818 55.2539 617.478 55.1953C613.083 55.0195 609.275 55.8984 606.052 57.832C602.888 59.7656 600.222 62.3438 598.054 65.5664C595.944 68.7891 594.275 72.3047 593.044 76.1133C591.814 79.9219 590.964 83.6426 590.495 87.2754Z" fill="white"/>
</svg>
